<svg width="512" height="512" viewBox="0 0 512 512" fill="none" xmlns="http://www.w3.org/2000/svg">
  <rect width="512" height="512" rx="64" fill="#1E3A5F"/>
  
  <!-- Background circles -->
  <circle cx="256" cy="256" r="180" fill="#C4704A" opacity="0.08"/>
  <circle cx="256" cy="256" r="140" fill="#C4704A" opacity="0.12"/>
  <circle cx="256" cy="256" r="100" fill="#C4704A" opacity="0.16"/>
  
  <!-- Main film reel -->
  <circle cx="256" cy="256" r="120" stroke="#ffffff" stroke-width="6" fill="none"/>
  <circle cx="256" cy="256" r="90" stroke="#ffffff" stroke-width="4" fill="none"/>
  <circle cx="256" cy="256" r="60" stroke="#ffffff" stroke-width="3" fill="none"/>
  
  <!-- Film holes around the reel -->
  <circle cx="256" cy="136" r="8" fill="#ffffff"/>
  <circle cx="256" cy="376" r="8" fill="#ffffff"/>
  <circle cx="136" cy="256" r="8" fill="#ffffff"/>
  <circle cx="376" cy="256" r="8" fill="#ffffff"/>
  
  <!-- Diagonal film holes -->
  <circle cx="341" cy="171" r="6" fill="#ffffff"/>
  <circle cx="171" cy="341" r="6" fill="#ffffff"/>
  <circle cx="171" cy="171" r="6" fill="#ffffff"/>
  <circle cx="341" cy="341" r="6" fill="#ffffff"/>
  
  <!-- Center hub -->
  <circle cx="256" cy="256" r="35" fill="#ffffff"/>
  <circle cx="256" cy="256" r="20" fill="#1E3A5F"/>
  
  <!-- Film strip elements -->
  <rect x="226" y="226" width="60" height="8" rx="4" fill="#C4704A"/>
  <rect x="226" y="278" width="60" height="8" rx="4" fill="#C4704A"/>
  <rect x="244" y="208" width="8" height="60" rx="4" fill="#C4704A"/>
  <rect x="260" y="208" width="8" height="60" rx="4" fill="#C4704A"/>
  
  <!-- Text -->
  <text x="256" y="420" font-family="Inter, sans-serif" font-size="32" font-weight="700" fill="#ffffff" text-anchor="middle">MOVIEBOLI</text>
  <text x="256" y="450" font-family="Inter, sans-serif" font-size="18" font-weight="400" fill="#C4704A" text-anchor="middle">Cinema • Cultura • Podcast</text>
</svg>